<svg width="16" height="16" viewBox="0 0 16 16" fill="none" xmlns="http://www.w3.org/2000/svg">
<mask id="mask0_1000_567" style="mask-type:alpha" maskUnits="userSpaceOnUse" x="-5" y="-5" width="26" height="26">
<rect x="-4.54554" y="-4.10915" width="24.6549" height="24.6549" fill="#D9D9D9"/>
</mask>
<g mask="url(#mask0_1000_567)">
<path d="M6.75441 12.5072V1.02729C6.75441 0.736222 6.85286 0.492241 7.04975 0.295345C7.24665 0.0984483 7.49063 0 7.7817 0C8.07276 0 8.31674 0.0984483 8.51364 0.295345C8.71053 0.492241 8.80898 0.736222 8.80898 1.02729V12.5072L13.8427 7.47351C14.0481 7.26805 14.2878 7.1696 14.5618 7.17816C14.8357 7.18673 15.0754 7.29373 15.2809 7.49919C15.4692 7.70465 15.5677 7.94435 15.5762 8.21829C15.5848 8.49223 15.4863 8.73194 15.2809 8.93739L8.5008 15.7175C8.39807 15.8202 8.28678 15.893 8.16693 15.9358C8.04708 15.9786 7.91867 16 7.7817 16C7.64472 16 7.51631 15.9786 7.39646 15.9358C7.27661 15.893 7.16532 15.8202 7.06259 15.7175L0.282504 8.93739C0.0941679 8.74906 0 8.51364 0 8.23113C0 7.94863 0.0941679 7.70465 0.282504 7.49919C0.487961 7.29373 0.731942 7.19101 1.01445 7.19101C1.29695 7.19101 1.54093 7.29373 1.74639 7.49919L6.75441 12.5072Z" fill="#58A430"/>
</g>
</svg>
