<svg width="16" height="16" viewBox="0 0 16 16" fill="none" xmlns="http://www.w3.org/2000/svg">
<mask id="mask0_2008_75" style="mask-type:alpha" maskUnits="userSpaceOnUse" x="0" y="0" width="16" height="16">
<rect x="0.5" y="0.5" width="15" height="15" fill="#D9D9D9" stroke="#007ACC"/>
</mask>
<g mask="url(#mask0_2008_75)">
<path d="M8.01532 3.44141C8.0461 3.44044 8.07066 3.44499 8.11298 3.4873L12.5134 7.88672C12.5246 7.89793 12.5307 7.90634 12.5339 7.91113C12.5365 7.91518 12.5376 7.9174 12.5378 7.91797C12.5449 7.93778 12.5505 7.96407 12.5505 8C12.5505 8.03596 12.5449 8.06221 12.5378 8.08203C12.5377 8.0823 12.5367 8.08448 12.5339 8.08887C12.5307 8.09365 12.5245 8.1021 12.5134 8.11328L8.11298 12.5137C8.09077 12.5358 8.06775 12.5498 8.00848 12.5498C7.95247 12.5498 7.91738 12.5352 7.88055 12.5039C7.84438 12.4652 7.83368 12.4352 7.83368 12.3916C7.8337 12.3451 7.84488 12.313 7.88739 12.2705L11.9909 8.16699H3.33368C3.27071 8.16699 3.24099 8.15048 3.21161 8.12109C3.18246 8.09183 3.16669 8.06271 3.16669 8C3.1667 7.93728 3.18242 7.90818 3.21161 7.87891C3.24099 7.84953 3.27071 7.83301 3.33368 7.83301H11.9909L11.1374 6.97949L7.86981 3.71289C7.82784 3.6708 7.82393 3.64593 7.82489 3.61523C7.8262 3.57554 7.83666 3.5409 7.8786 3.49609C7.92245 3.45805 7.96238 3.44311 8.01532 3.44141Z" fill="#58A430" stroke="#58A430"/>
</g>
</svg>
