<svg width="24" height="24" viewBox="0 0 24 24" fill="none" xmlns="http://www.w3.org/2000/svg">
<mask id="mask0_2008_479" style="mask-type:alpha" maskUnits="userSpaceOnUse" x="0" y="0" width="24" height="24">
<rect x="0.5" y="0.5" width="23" height="23" fill="#D9D9D9" stroke="#007ACC"/>
</mask>
<g mask="url(#mask0_2008_479)">
<path d="M12.0156 4.91211C12.1353 4.90837 12.2377 4.94474 12.3467 5.05371L18.9463 11.6533C19.0013 11.7083 19.0285 11.7553 19.042 11.793C19.063 11.8517 19.0752 11.9196 19.0752 12C19.0752 12.0804 19.063 12.1483 19.042 12.207C19.0285 12.2447 19.0014 12.2916 18.9463 12.3467L12.3467 18.9463C12.2633 19.0297 12.1639 19.0752 12.0127 19.0752C11.8648 19.0752 11.7507 19.0309 11.6465 18.9385C11.5428 18.8318 11.5001 18.7228 11.5 18.5879C11.5 18.4497 11.5441 18.3377 11.6533 18.2285L17.3818 12.5H5C4.84258 12.5 4.7339 12.4526 4.64062 12.3594C4.54739 12.2661 4.5 12.1574 4.5 12C4.50002 11.8429 4.54766 11.7348 4.64062 11.6416C4.7339 11.5483 4.84258 11.5 5 11.5H17.3818L16.5283 10.6465L11.6289 5.74609C11.5201 5.63722 11.4836 5.53554 11.4873 5.41602C11.4913 5.28731 11.5356 5.17416 11.6465 5.06055C11.7573 4.9621 11.8746 4.91652 12.0156 4.91211Z" fill="#58A428" stroke="#58A428"/>
</g>
</svg>
