<svg width="24" height="24" viewBox="0 0 24 24" fill="none" xmlns="http://www.w3.org/2000/svg">
<mask id="mask0_2008_502" style="mask-type:alpha" maskUnits="userSpaceOnUse" x="0" y="0" width="24" height="24">
<rect width="24" height="24" fill="#D9D9D9"/>
</mask>
<g mask="url(#mask0_2008_502)">
<path d="M16.1749 13.0001H4.99994C4.71661 13.0001 4.47911 12.9043 4.28744 12.7126C4.09577 12.5209 3.99994 12.2834 3.99994 12.0001C3.99994 11.7168 4.09577 11.4793 4.28744 11.2876C4.47911 11.0959 4.71661 11.0001 4.99994 11.0001H16.1749L11.2749 6.10011C11.0749 5.90011 10.9791 5.66678 10.9874 5.40011C10.9958 5.13344 11.0999 4.90011 11.2999 4.70011C11.4999 4.51678 11.7333 4.42094 11.9999 4.41261C12.2666 4.40428 12.4999 4.50011 12.6999 4.70011L19.2999 11.3001C19.3999 11.4001 19.4708 11.5084 19.5124 11.6251C19.5541 11.7418 19.5749 11.8668 19.5749 12.0001C19.5749 12.1334 19.5541 12.2584 19.5124 12.3751C19.4708 12.4918 19.3999 12.6001 19.2999 12.7001L12.6999 19.3001C12.5166 19.4834 12.2874 19.5751 12.0124 19.5751C11.7374 19.5751 11.4999 19.4834 11.2999 19.3001C11.0999 19.1001 10.9999 18.8626 10.9999 18.5876C10.9999 18.3126 11.0999 18.0751 11.2999 17.8751L16.1749 13.0001Z" fill="#288410"/>
</g>
</svg>
