<svg width="16" height="16" viewBox="0 0 16 16" fill="none" xmlns="http://www.w3.org/2000/svg">
<mask id="mask0_2008_551" style="mask-type:alpha" maskUnits="userSpaceOnUse" x="0" y="0" width="16" height="16">
<rect x="0.5" y="0.5" width="15" height="15" fill="#D9D9D9" stroke="#007ACC"/>
</mask>
<g mask="url(#mask0_2008_551)">
<path d="M8.01529 3.44141C8.04607 3.44044 8.07063 3.44499 8.11295 3.4873L12.5133 7.88672C12.5246 7.89793 12.5307 7.90634 12.5338 7.91113C12.5365 7.91518 12.5375 7.9174 12.5378 7.91797C12.5448 7.93778 12.5504 7.96407 12.5504 8C12.5504 8.03596 12.5448 8.06221 12.5378 8.08203C12.5377 8.0823 12.5367 8.08448 12.5338 8.08887C12.5307 8.09365 12.5245 8.1021 12.5133 8.11328L8.11295 12.5137C8.09074 12.5358 8.06772 12.5498 8.00845 12.5498C7.95244 12.5498 7.91734 12.5352 7.88052 12.5039C7.84435 12.4652 7.83365 12.4352 7.83365 12.3916C7.83367 12.3451 7.84485 12.313 7.88736 12.2705L11.9909 8.16699H3.33365C3.27068 8.16699 3.24096 8.15048 3.21158 8.12109C3.18243 8.09183 3.16666 8.06271 3.16666 8C3.16667 7.93728 3.18239 7.90818 3.21158 7.87891C3.24096 7.84953 3.27068 7.83301 3.33365 7.83301H11.9909L11.1374 6.97949L7.86978 3.71289C7.82781 3.6708 7.8239 3.64593 7.82486 3.61523C7.82617 3.57554 7.83663 3.5409 7.87857 3.49609C7.92242 3.45805 7.96235 3.44311 8.01529 3.44141Z" fill="#58A430" stroke="#58A430"/>
</g>
</svg>
