<svg width="32" height="32" viewBox="0 0 32 32" fill="none" xmlns="http://www.w3.org/2000/svg">
<mask id="mask0_1_283" style="mask-type:alpha" maskUnits="userSpaceOnUse" x="0" y="0" width="32" height="32">
<rect width="32" height="32" fill="#D9D9D9"/>
</mask>
<g mask="url(#mask0_1_283)">
<path d="M3.77665 25.3333C3.46198 25.3333 3.19809 25.2264 2.98498 25.0127C2.77209 24.7991 2.66565 24.5343 2.66565 24.2183C2.66565 23.9023 2.77209 23.6388 2.98498 23.4277C3.19809 23.2166 3.46198 23.111 3.77665 23.111H14.888C15.2027 23.111 15.4665 23.2179 15.6797 23.4317C15.8925 23.6454 15.999 23.9102 15.999 24.226C15.999 24.542 15.8925 24.8056 15.6797 25.0167C15.4665 25.2278 15.2027 25.3333 14.888 25.3333H3.77665ZM3.77665 18.4443C3.46198 18.4443 3.19809 18.3376 2.98498 18.124C2.77209 17.9102 2.66565 17.6453 2.66565 17.3293C2.66565 17.0136 2.77209 16.7501 2.98498 16.539C3.19809 16.3279 3.46198 16.2223 3.77665 16.2223H8.22132C8.53598 16.2223 8.79987 16.3291 9.01298 16.5427C9.22587 16.7564 9.33232 17.0213 9.33232 17.3373C9.33232 17.6531 9.22587 17.9166 9.01298 18.1277C8.79987 18.3388 8.53598 18.4443 8.22132 18.4443H3.77665ZM3.77665 11.5557C3.46198 11.5557 3.19809 11.4488 2.98498 11.235C2.77209 11.0212 2.66565 10.7564 2.66565 10.4407C2.66565 10.1247 2.77209 9.86111 2.98498 9.65C3.19809 9.43889 3.46198 9.33333 3.77665 9.33333H8.22132C8.53598 9.33333 8.79987 9.44022 9.01298 9.654C9.22587 9.86756 9.33232 10.1323 9.33232 10.4483C9.33232 10.7643 9.22587 11.0279 9.01298 11.239C8.79987 11.4501 8.53598 11.5557 8.22132 11.5557H3.77665ZM18.6657 21.3333C16.8212 21.3333 15.249 20.6833 13.949 19.3833C12.649 18.0833 11.999 16.5111 11.999 14.6667C11.999 12.8222 12.649 11.25 13.949 9.95C15.249 8.65 16.8212 8 18.6657 8C20.5101 8 22.0823 8.65 23.3823 9.95C24.6823 11.25 25.3323 12.8222 25.3323 14.6667C25.3323 15.3556 25.2268 16.0278 25.0157 16.6833C24.8045 17.3389 24.4879 17.9481 24.0657 18.511L28.5547 23C28.7693 23.2149 28.8767 23.4741 28.8767 23.7777C28.8767 24.0814 28.7693 24.3408 28.5547 24.5557C28.3398 24.7703 28.0804 24.8777 27.7767 24.8777C27.4731 24.8777 27.2139 24.7703 26.999 24.5557L22.51 20.0667C21.9471 20.4889 21.3379 20.8056 20.6823 21.0167C20.0268 21.2278 19.3545 21.3333 18.6657 21.3333ZM18.6603 19.111C19.8934 19.111 20.9433 18.6794 21.81 17.8163C22.6767 16.9532 23.11 15.9051 23.11 14.672C23.11 13.4389 22.6784 12.389 21.8153 11.5223C20.9522 10.6557 19.9041 10.2223 18.671 10.2223C17.4379 10.2223 16.388 10.6539 15.5213 11.517C14.6547 12.3801 14.2213 13.4282 14.2213 14.6613C14.2213 15.8944 14.6529 16.9443 15.516 17.811C16.3791 18.6777 17.4272 19.111 18.6603 19.111Z" fill="#28323C"/>
</g>
</svg>
