<svg width="289" height="40" viewBox="0 0 289 40" fill="none" xmlns="http://www.w3.org/2000/svg">
<path d="M127.539 7H131.446V22.6401H131.551L137.472 16.0245H142.491L135.718 23.1288L142.908 31.7344H137.733L131.551 23.6874H131.446V31.7344H127.539V7ZM121.097 22.3084C121.097 21.8022 121.027 21.3309 120.888 20.8771C120.749 20.4232 120.524 20.0218 120.211 19.6727C119.898 19.3236 119.516 19.0443 119.048 18.8348C118.579 18.6253 118.04 18.5206 117.398 18.5206C116.217 18.5206 115.227 18.8697 114.411 19.5854C113.595 20.3011 113.143 21.2087 113.057 22.3084H121.062H121.097ZM125.004 24.0889V24.6126C125.004 24.7871 125.004 24.9617 124.969 25.1362H113.091C113.126 25.7122 113.282 26.2185 113.525 26.6898C113.769 27.1611 114.098 27.5625 114.515 27.8942C114.932 28.2258 115.401 28.5051 115.922 28.6971C116.443 28.8891 116.981 28.9939 117.554 28.9939C118.527 28.9939 119.36 28.8193 120.02 28.4528C120.697 28.0862 121.253 27.5974 121.687 26.969L124.292 29.0637C122.746 31.1584 120.506 32.2057 117.589 32.2057C116.373 32.2057 115.262 32.0137 114.237 31.6297C113.213 31.2456 112.327 30.7045 111.58 30.0063C110.834 29.3081 110.243 28.4528 109.827 27.4403C109.41 26.4279 109.201 25.2759 109.201 23.9842C109.201 22.6925 109.41 21.5579 109.827 20.528C110.243 19.4981 110.834 18.6079 111.563 17.8747C112.31 17.1416 113.178 16.583 114.185 16.1816C115.192 15.7801 116.286 15.5706 117.45 15.5706C118.544 15.5706 119.534 15.7452 120.454 16.1117C121.375 16.4783 122.173 17.002 122.851 17.7176C123.528 18.4333 124.049 19.3061 124.431 20.3709C124.813 21.4357 125.004 22.675 125.004 24.0889ZM97.4277 19.1665V16.0245H100.171V11.4686H104.009V16.0245H107.916V19.1665H104.009V26.4628C104.009 27.1611 104.131 27.7371 104.391 28.1909C104.634 28.6448 105.207 28.8717 106.076 28.8717C106.336 28.8717 106.614 28.8368 106.927 28.7844C107.239 28.732 107.5 28.6448 107.743 28.54L107.882 31.6122C107.534 31.7518 107.118 31.8391 106.649 31.9264C106.162 31.9962 105.711 32.0311 105.277 32.0311C104.235 32.0311 103.384 31.8915 102.742 31.5947C102.099 31.298 101.578 30.8965 101.196 30.3903C100.814 29.8841 100.553 29.2906 100.415 28.6273C100.276 27.964 100.206 27.2483 100.206 26.4803V19.149H97.4625L97.4277 19.1665ZM91.6624 16.0245H95.5696V31.7344H91.6624V16.0245ZM91.1067 10.7006C91.1067 10.0722 91.3325 9.51359 91.8013 9.04229C92.2702 8.57099 92.8606 8.34407 93.5726 8.34407C94.2846 8.34407 94.8924 8.57099 95.3786 9.00738C95.8648 9.46122 96.108 10.0198 96.108 10.7006C96.108 11.3813 95.8648 11.9399 95.3786 12.3937C94.8924 12.8476 94.2846 13.0745 93.5726 13.0745C92.8606 13.0745 92.2702 12.8476 91.8013 12.3763C91.3325 11.905 91.1067 11.3639 91.1067 10.718M73.9498 16.0245H77.666V18.5381H77.7354C78.0827 17.7526 78.6905 17.0543 79.5414 16.4609C80.3923 15.8674 81.4169 15.5532 82.5804 15.5532C83.6049 15.5532 84.4732 15.7277 85.2025 16.0943C85.9319 16.4609 86.5223 16.9322 86.9912 17.5256C87.46 18.1191 87.8073 18.7999 88.0157 19.5505C88.2241 20.3185 88.3457 21.104 88.3457 21.907V31.7344H84.4385V23.0241C84.4385 22.5703 84.4037 22.0815 84.3343 21.5928C84.2648 21.0866 84.1259 20.6327 83.9175 20.2312C83.7091 19.8298 83.3965 19.4981 83.0145 19.2363C82.6325 18.9744 82.1289 18.8348 81.5037 18.8348C80.8786 18.8348 80.3402 18.957 79.8714 19.2188C79.4199 19.4632 79.0378 19.7949 78.7426 20.1789C78.4474 20.5629 78.2217 21.0167 78.0827 21.5404C77.9265 22.0466 77.857 22.5703 77.857 23.0939V31.7344H73.9498V16.0245ZM70.5635 23.2336C70.5635 24.63 70.3204 25.8868 69.8516 27.0214C69.3827 28.1386 68.7228 29.0986 67.9067 29.8841C67.0731 30.6696 66.1007 31.2805 64.9719 31.6995C63.8432 32.1184 62.6102 32.3453 61.2905 32.3453C59.9707 32.3453 58.7378 32.1359 57.609 31.6995C56.4803 31.2631 55.5078 30.6696 54.6569 29.8841C53.8234 29.0986 53.1635 28.1386 52.6946 27.0214C52.2258 25.9043 52 24.63 52 23.2336V8.57099H56.0982V23.0765C56.0982 23.7572 56.185 24.4205 56.3587 25.0839C56.5324 25.7472 56.8276 26.3406 57.227 26.8643C57.6264 27.388 58.1647 27.8069 58.8246 28.1386C59.4845 28.4702 60.3006 28.6273 61.2905 28.6273C62.2803 28.6273 63.0791 28.4702 63.7563 28.1386C64.4162 27.8069 64.9545 27.388 65.3539 26.8643C65.7533 26.3406 66.0486 25.7472 66.2222 25.0839C66.3959 24.4205 66.4827 23.7398 66.4827 23.0765V8.57099H70.5809V23.2336H70.5635Z" fill="white"/>
<path d="M275.258 20.6667H287.24V18.799H275.258V9.82685H287.987V7.95911H273.331V32.3444H288.508V30.4766H275.258V20.6667ZM258.969 7.31326C257.129 7.31326 255.392 7.62746 253.847 8.27331C252.301 8.91916 250.964 9.80939 249.853 10.944C248.759 12.0786 247.873 13.4401 247.265 15.0111C246.657 16.5647 246.345 18.2753 246.345 20.0907C246.345 21.906 246.657 23.6167 247.248 25.1702C247.856 26.7412 248.724 28.1027 249.835 29.2722C250.947 30.4243 252.319 31.3494 253.881 32.0127C255.444 32.676 257.198 33.0077 259.108 33.0077C261.019 33.0077 262.668 32.7808 264.11 32.3618C265.534 31.9429 266.732 31.4542 267.687 30.9305L267.999 30.7559V19.6717H260.081V21.5045H266.072V29.6039C265.186 30.0054 264.214 30.3719 263.172 30.6512C262.008 30.9654 260.654 31.1225 259.16 31.1225C257.459 31.1225 255.913 30.8258 254.559 30.2497C253.222 29.6737 252.075 28.8882 251.155 27.8932C250.235 26.8983 249.505 25.7113 249.019 24.3847C248.533 23.0406 248.272 21.5918 248.272 20.0732C248.272 18.5546 248.533 17.1232 249.037 15.8141C249.54 14.5049 250.269 13.3354 251.19 12.3579C252.11 11.3804 253.256 10.5949 254.559 10.0189C256.347 9.25082 258.414 8.93662 260.793 9.32064C261.418 9.42537 262.06 9.58247 262.668 9.79193C263.276 10.0014 263.849 10.2632 264.405 10.56C264.926 10.8567 265.395 11.1884 265.794 11.5724L266.228 11.9739L267.635 10.56L267.131 10.141C266.089 9.26827 264.856 8.57005 263.502 8.0813C262.147 7.57509 260.619 7.33072 259.004 7.33072M243.41 30.4766H230.16V20.6667H242.142V18.799H230.16V9.82685H242.889V7.95911H228.233V32.3444H243.41V30.4766ZM212.031 7.95911V32.3444H225.42V30.4766H213.959V7.95911H212.031ZM209.2 30.4766H197.739V7.95911H195.812V32.3444H209.2V30.4766ZM183.083 30.2846C184.368 29.7261 185.479 28.9406 186.4 27.9456C187.32 26.9681 188.032 25.7986 188.536 24.472C189.039 23.1454 189.3 21.6791 189.3 20.1605C189.3 18.6419 189.039 17.1756 188.518 15.849C188.015 14.5224 187.268 13.3528 186.348 12.3579C185.427 11.3804 184.299 10.5949 183.014 10.0189C181.728 9.46028 180.305 9.16354 178.759 9.16354C177.213 9.16354 175.79 9.44283 174.504 10.0189C173.219 10.5774 172.091 11.3629 171.17 12.3579C170.25 13.3354 169.503 14.5224 169 15.849C168.496 17.1756 168.218 18.6244 168.218 20.1605C168.218 21.6966 168.479 23.1454 168.982 24.472C169.486 25.7986 170.198 26.9681 171.118 27.9456C172.039 28.9231 173.15 29.7086 174.435 30.2846C175.72 30.8432 177.179 31.14 178.759 31.14C180.339 31.14 181.798 30.8607 183.083 30.2846ZM183.743 8.27331C185.254 8.91916 186.573 9.80939 187.685 10.944C188.796 12.0786 189.664 13.4401 190.29 15.0111C190.915 16.5647 191.227 18.3102 191.227 20.1605C191.227 22.0108 190.915 23.7563 190.29 25.3098C189.664 26.8808 188.796 28.2424 187.685 29.377C186.573 30.5116 185.254 31.4018 183.725 32.0476C182.197 32.6935 180.53 33.0077 178.776 33.0077C177.022 33.0077 175.338 32.676 173.827 32.0476C172.299 31.4018 170.979 30.5116 169.868 29.377C168.757 28.2424 167.888 26.8808 167.263 25.3098C166.638 23.7563 166.325 22.0108 166.325 20.1605C166.325 18.3102 166.638 16.5647 167.263 15.0111C167.888 13.4576 168.757 12.0786 169.868 10.944C170.979 9.80939 172.299 8.91916 173.81 8.27331C176.831 6.99906 180.721 6.99906 183.743 8.27331ZM144.046 25.2749C143.455 23.7039 143.143 21.9758 143.143 20.143C143.143 18.3102 143.455 16.5821 144.046 15.0111C144.653 13.4401 145.504 12.0611 146.598 10.9265C147.692 9.79194 149.012 8.90171 150.523 8.25585C153.301 7.08634 156.774 6.9467 159.883 8.06384C161.324 8.58751 162.575 9.39046 163.582 10.4552L163.964 10.8567L162.713 12.3055L162.262 11.8168C161.845 11.3804 161.359 10.9789 160.838 10.6473C160.3 10.3156 159.727 10.0189 159.119 9.80939C158.511 9.58247 157.903 9.42537 157.295 9.32064C154.986 8.93662 152.989 9.25082 151.235 10.0189C149.967 10.5774 148.856 11.3629 147.953 12.3404C147.05 13.3179 146.321 14.4875 145.834 15.8315C145.331 17.1581 145.07 18.6244 145.07 20.143C145.07 21.6616 145.313 23.1279 145.817 24.472C146.303 25.7986 147.015 26.9681 147.918 27.9456C148.821 28.9231 149.933 29.7086 151.2 30.2672C153.562 31.3145 156.653 31.4716 159.518 30.3196C160.821 29.8133 161.897 29.0278 162.748 27.998L163.165 27.4918L164.572 28.8184L164.207 29.2548C163.165 30.5116 161.845 31.4542 160.265 32.0651C158.719 32.676 157.122 32.9728 155.507 32.9728C153.701 32.9728 152.016 32.6411 150.523 32.0127C149.03 31.3669 147.71 30.4766 146.616 29.342C145.522 28.2074 144.653 26.8285 144.063 25.2575" fill="#B4E850"/>
<path d="M8.16151 27.5444C6.0603 19.9862 9.91541 12.1836 16.8963 9.16383C16.219 9.25111 15.5244 9.39075 14.8472 9.58276C6.65073 11.8869 1.85789 20.4226 4.13275 28.6616C6.42498 36.9006 14.9166 41.7183 23.1131 39.4316C23.7903 39.2396 24.4502 38.9952 25.0927 38.7334C17.5735 39.7807 10.2627 35.1026 8.16151 27.5444ZM27.7496 32.3796C20.2304 34.4917 12.4681 30.5991 9.46391 23.5995C9.5681 24.2803 9.68966 24.9785 9.88068 25.6592C12.1729 33.8982 20.6646 38.7159 28.861 36.4293C37.0574 34.1251 41.8503 25.5894 39.5754 17.3504C39.3844 16.6697 39.1413 16.0064 38.8808 15.3605C39.9227 22.9187 35.2688 30.2675 27.7496 32.3796ZM12.3987 7.99432C19.9178 5.88221 27.6801 9.75732 30.6843 16.7744C30.5975 16.0936 30.4586 15.3954 30.2676 14.7147C27.9754 6.45824 19.4663 1.64053 11.2699 3.94465C3.07347 6.23132 -1.71937 14.7845 0.572859 23.0235C0.763878 23.7042 1.00699 24.3675 1.26747 25.0134C0.242918 17.4552 4.87946 10.1064 12.3987 7.99432ZM15.2813 1.27397C15.9238 0.994679 16.5663 0.767758 17.2609 0.575748C25.4574 -1.72837 33.9664 3.08933 36.2413 11.3458C38.5335 19.5847 33.7406 28.1205 25.5268 30.4246C24.8496 30.6166 24.155 30.7562 23.4777 30.8435C30.4412 27.8237 34.2963 20.0211 32.2125 12.4629C30.1113 4.9047 22.8005 0.244094 15.2813 1.27397Z" fill="#B4E850"/>
</svg>
