<svg width="153" height="50" viewBox="0 0 153 50" fill="none" xmlns="http://www.w3.org/2000/svg">
<path d="M74.7722 44.1534C74.5522 44.4834 74.2822 44.7935 73.9721 45.0935C73.6621 45.3936 73.302 45.6436 72.8919 45.8737C72.4819 46.0937 72.0318 46.2737 71.5317 46.4038C71.0316 46.5338 70.4915 46.6038 69.9114 46.6038C68.9312 46.6038 68.0311 46.4338 67.2009 46.0937C66.3708 45.7536 65.6506 45.2736 65.0505 44.6735C64.4504 44.0733 63.9804 43.3532 63.6503 42.5231C63.3102 41.6929 63.1502 40.7828 63.1502 39.7926C63.1502 38.8024 63.3202 37.8923 63.6603 37.0621C64.0004 36.232 64.4805 35.5118 65.0806 34.9117C65.6807 34.3016 66.4008 33.8316 67.2309 33.4915C68.0611 33.1514 68.9512 32.9814 69.9214 32.9814C70.4015 32.9814 70.8616 33.0314 71.3217 33.1314C71.7817 33.2315 72.2118 33.3715 72.6119 33.5515C73.012 33.7315 73.382 33.9516 73.7121 34.2016C74.0421 34.4517 74.3122 34.7417 74.5322 35.0518L73.432 35.8619C73.302 35.6519 73.122 35.4418 72.8919 35.2418C72.6619 35.0318 72.4018 34.8517 72.0918 34.6917C71.7817 34.5317 71.4517 34.4017 71.0916 34.3116C70.7315 34.2116 70.3415 34.1616 69.9314 34.1616C69.0912 34.1616 68.3311 34.3116 67.671 34.6217C67.0009 34.9317 66.4408 35.3418 65.9707 35.8519C65.5106 36.372 65.1506 36.9721 64.9105 37.6522C64.6705 38.3323 64.5405 39.0525 64.5405 39.8126C64.5405 40.5727 64.6605 41.2829 64.9205 41.973C65.1706 42.6531 65.5306 43.2532 65.9907 43.7733C66.4508 44.2934 67.0209 44.7035 67.691 45.0035C68.3611 45.3136 69.1013 45.4636 69.9414 45.4636C70.6915 45.4636 71.3917 45.3136 72.0718 45.0035C72.7419 44.6935 73.302 44.2134 73.7621 43.5333L74.7923 44.1934L74.7722 44.1534Z" fill="#58A430"/>
<path d="M88.9346 39.7726C88.9346 40.7627 88.7646 41.6729 88.4246 42.5031C88.0845 43.3332 87.6044 44.0533 87.0043 44.6534C86.4042 45.2635 85.6841 45.7336 84.8539 46.0737C84.0238 46.4137 83.1336 46.5838 82.1635 46.5838C81.1933 46.5838 80.3031 46.4137 79.473 46.0737C78.6429 45.7336 77.9327 45.2535 77.3226 44.6534C76.7125 44.0533 76.2424 43.3332 75.9024 42.5031C75.5623 41.6729 75.3923 40.7627 75.3923 39.7726C75.3923 38.7824 75.5623 37.8722 75.9024 37.0421C76.2424 36.212 76.7225 35.4918 77.3226 34.8917C77.9227 34.2816 78.6429 33.8115 79.473 33.4715C80.3031 33.1314 81.1933 32.9614 82.1635 32.9614C83.1336 32.9614 84.0238 33.1314 84.8539 33.4715C85.6841 33.8115 86.3942 34.2916 87.0043 34.8917C87.6044 35.4918 88.0845 36.212 88.4246 37.0421C88.7646 37.8722 88.9346 38.7824 88.9346 39.7726ZM87.5344 39.7826C87.5344 39.0224 87.4144 38.3023 87.1643 37.6222C86.9243 36.9421 86.5642 36.342 86.1042 35.8219C85.6441 35.3018 85.074 34.8917 84.4039 34.5817C83.7337 34.2816 82.9936 34.1216 82.1535 34.1216C81.3133 34.1216 80.5732 34.2716 79.9031 34.5817C79.2329 34.8917 78.6729 35.3018 78.2028 35.8219C77.7427 36.342 77.3826 36.9421 77.1426 37.6222C76.9026 38.3023 76.7725 39.0224 76.7725 39.7826C76.7725 40.5427 76.8926 41.2628 77.1426 41.943C77.3826 42.6231 77.7427 43.2232 78.2028 43.7333C78.6629 44.2434 79.2329 44.6534 79.9031 44.9635C80.5732 45.2635 81.3233 45.4236 82.1535 45.4236C82.9836 45.4236 83.7337 45.2735 84.4039 44.9635C85.074 44.6534 85.6341 44.2534 86.1042 43.7333C86.5642 43.2232 86.9243 42.6231 87.1643 41.943C87.4044 41.2628 87.5344 40.5427 87.5344 39.7826Z" fill="#58A430"/>
<path d="M92.2653 45.0935H98.3164V46.2637H90.9451V33.2814H92.2653V45.0935Z" fill="#58A430"/>
<path d="M100.887 45.0935H106.938V46.2637H99.5666V33.2814H100.887V45.0935Z" fill="#58A430"/>
<path d="M109.508 45.0935H116.46V46.2637H108.188V33.2814H116.24V34.4517H109.508V38.9124H115.799V40.0826H109.508V45.0935Z" fill="#58A430"/>
<path d="M128.161 35.6319C127.711 35.1518 127.171 34.7817 126.551 34.5217C125.931 34.2616 125.211 34.1316 124.401 34.1316C123.591 34.1316 122.821 34.2816 122.15 34.5917C121.48 34.9017 120.92 35.3118 120.45 35.8319C119.98 36.352 119.63 36.9521 119.38 37.6322C119.13 38.3123 119 39.0325 119 39.7926C119 40.5527 119.12 41.2729 119.38 41.953C119.63 42.6331 119.99 43.2332 120.45 43.7433C120.91 44.2534 121.48 44.6635 122.15 44.9735C122.821 45.2736 123.561 45.4336 124.401 45.4336C125.131 45.4336 125.811 45.3536 126.421 45.1935C127.031 45.0335 127.531 44.8335 127.901 44.5934V40.6528H124.871V39.4825H129.222V45.3436C128.512 45.7737 127.751 46.0937 126.931 46.3037C126.111 46.5138 125.261 46.6138 124.381 46.6138C123.401 46.6138 122.501 46.4438 121.67 46.1037C120.84 45.7636 120.12 45.2836 119.52 44.6835C118.92 44.0834 118.45 43.3632 118.12 42.5331C117.78 41.7029 117.62 40.7928 117.62 39.8026C117.62 38.8124 117.79 37.9023 118.13 37.0721C118.47 36.242 118.95 35.5219 119.55 34.9217C120.15 34.3116 120.87 33.8416 121.7 33.5015C122.531 33.1614 123.421 32.9914 124.391 32.9914C125.431 32.9914 126.331 33.1514 127.101 33.4615C127.871 33.7715 128.532 34.2016 129.082 34.7517L128.161 35.6719V35.6319Z" fill="#58A430"/>
<path d="M133.182 45.0935H140.134V46.2637H131.862V33.2814H139.914V34.4517H133.182V38.9124H139.473V40.0826H133.182V45.0935Z" fill="#58A430"/>
<path d="M137.693 3.8363H141.534V19.139H141.634L147.465 12.6679H152.396L145.735 19.6191L152.816 28.0405H147.725L141.644 20.1692H141.544V28.0405H137.703V3.8363H137.693ZM131.352 18.8189C131.352 18.3288 131.282 17.8588 131.142 17.4087C131.002 16.9586 130.782 16.5685 130.482 16.2285C130.182 15.8884 129.802 15.6184 129.342 15.4083C128.882 15.2083 128.342 15.1083 127.722 15.1083C126.571 15.1083 125.591 15.4583 124.791 16.1485C123.991 16.8386 123.551 17.7287 123.461 18.8189H131.342H131.352ZM135.193 20.5492V21.0593C135.193 21.2294 135.183 21.3994 135.163 21.5694H123.481C123.521 22.1295 123.671 22.6296 123.911 23.0897C124.151 23.5498 124.481 23.9398 124.891 24.2699C125.291 24.5999 125.751 24.86 126.271 25.06C126.781 25.2501 127.321 25.3501 127.872 25.3501C128.832 25.3501 129.642 25.17 130.302 24.82C130.962 24.4699 131.512 23.9798 131.932 23.3597L134.493 25.4101C132.982 27.4604 130.782 28.4806 127.902 28.4806C126.701 28.4806 125.611 28.2906 124.601 27.9205C123.601 27.5505 122.731 27.0204 121.991 26.3402C121.25 25.6601 120.68 24.82 120.26 23.8298C119.84 22.8396 119.64 21.7094 119.64 20.4492C119.64 19.189 119.85 18.0888 120.26 17.0686C120.67 16.0584 121.25 15.1883 121.971 14.4782C122.701 13.768 123.551 13.2079 124.551 12.8179C125.551 12.4278 126.621 12.2278 127.772 12.2278C128.842 12.2278 129.822 12.4078 130.732 12.7579C131.642 13.1079 132.422 13.638 133.082 14.3281C133.743 15.0183 134.263 15.8884 134.633 16.9186C135.003 17.9588 135.193 19.169 135.193 20.5492ZM108.078 15.7384V12.6679H110.769V8.21707H114.549V12.6679H118.39V15.7384H114.549V22.8796C114.549 23.5598 114.669 24.1299 114.919 24.5799C115.159 25.03 115.709 25.2501 116.57 25.2501C116.82 25.2501 117.1 25.2201 117.4 25.17C117.7 25.12 117.97 25.04 118.2 24.93L118.33 27.9405C117.99 28.0706 117.58 28.1706 117.11 28.2406C116.64 28.3106 116.19 28.3506 115.769 28.3506C114.739 28.3506 113.909 28.2106 113.269 27.9205C112.629 27.6305 112.119 27.2404 111.749 26.7403C111.379 26.2402 111.119 25.6601 110.979 25.01C110.839 24.3599 110.769 23.6598 110.769 22.9096V15.7384H108.078ZM102.417 12.6679H106.258V28.0405H102.417V12.6679ZM101.867 7.44694C101.867 6.82683 102.097 6.28673 102.557 5.82665C103.017 5.36657 103.597 5.13653 104.307 5.13653C105.018 5.13653 105.608 5.35657 106.078 5.79665C106.558 6.23672 106.798 6.78682 106.798 7.44694C106.798 8.10705 106.558 8.65715 106.078 9.09723C105.598 9.5373 105.008 9.75734 104.307 9.75734C103.607 9.75734 103.017 9.5273 102.557 9.06722C102.097 8.60714 101.867 8.06704 101.867 7.44694ZM84.994 12.6679H88.6447V15.1283H88.7047C89.0448 14.3581 89.6349 13.688 90.485 13.0979C91.3252 12.5078 92.3253 12.2178 93.4755 12.2178C94.4757 12.2178 95.3359 12.3978 96.056 12.7479C96.7661 13.0979 97.3562 13.568 97.8163 14.1381C98.2764 14.7182 98.6165 15.3783 98.8265 16.1285C99.0365 16.8786 99.1465 17.6387 99.1465 18.4389V28.0405H95.3059V19.5291C95.3059 19.079 95.2759 18.6089 95.2059 18.1188C95.1458 17.6287 95.0058 17.1886 94.7958 16.7886C94.5857 16.3985 94.2857 16.0684 93.9156 15.8084C93.5456 15.5484 93.0455 15.4283 92.4254 15.4283C91.8053 15.4283 91.2752 15.5484 90.8251 15.7984C90.375 16.0484 90.0049 16.3585 89.7249 16.7486C89.4348 17.1286 89.2148 17.5787 89.0648 18.0788C88.9147 18.5789 88.8447 19.089 88.8447 19.5991V28.0505H85.0041V12.6779L84.994 12.6679ZM81.6635 19.7091C81.6635 21.0793 81.4334 22.3095 80.9633 23.4097C80.4933 24.5099 79.8532 25.4401 79.043 26.2102C78.2329 26.9804 77.2727 27.5705 76.1625 27.9905C75.0523 28.4106 73.8421 28.6106 72.5419 28.6106C71.2417 28.6106 70.0314 28.4006 68.9213 27.9905C67.8111 27.5705 66.8409 26.9804 66.0207 26.2102C65.2006 25.4401 64.5605 24.5099 64.1004 23.4097C63.6403 22.3095 63.4103 21.0793 63.4103 19.7091V5.36657H67.441V19.5491C67.441 20.2092 67.521 20.8693 67.691 21.5194C67.8611 22.1695 68.1411 22.7496 68.5412 23.2597C68.9313 23.7698 69.4614 24.1899 70.1115 24.5099C70.7616 24.83 71.5717 24.99 72.5319 24.99C73.492 24.99 74.3022 24.83 74.9523 24.5099C75.6024 24.1899 76.1225 23.7698 76.5226 23.2597C76.9126 22.7496 77.2027 22.1695 77.3727 21.5194C77.5427 20.8693 77.6228 20.2092 77.6228 19.5491V5.36657H81.6535V19.7091H81.6635Z" fill="#074975"/>
<path d="M10.2509 34.4216C7.62047 24.98 12.4613 15.2183 21.2229 11.4476C20.3627 11.5676 19.5025 11.7377 18.6424 11.9777C8.34058 14.8482 2.31953 25.5301 5.19003 35.8319C8.06053 46.1337 18.7424 52.1548 29.0442 49.2843C29.9044 49.0442 30.7345 48.7442 31.5246 48.4041C22.073 49.7043 12.8814 43.8633 10.2509 34.4216ZM34.8752 40.4627C25.4336 43.0932 15.6819 38.2523 11.9012 29.4908C12.0212 30.3509 12.1913 31.2111 12.4313 32.0712C15.3018 42.373 25.9837 48.3941 36.2855 45.5236C46.5873 42.6531 52.6083 31.9712 49.7378 21.6694C49.4978 20.8093 49.1978 19.9791 48.8577 19.179C50.1579 28.6306 44.3169 37.8222 34.8652 40.4527M15.5819 9.99737C25.0235 7.36691 34.7852 12.2078 38.5559 20.9693C38.4359 20.1091 38.2658 19.249 38.0258 18.3888C35.1553 8.08704 24.4734 2.06598 14.1716 4.93649C3.86981 7.80699 -2.16126 18.4889 0.719246 28.7907C0.959288 29.6508 1.25935 30.481 1.59941 31.2711C0.299177 21.8194 6.1402 12.6278 15.5819 9.99737ZM19.1925 1.5959C19.9926 1.24584 20.8128 0.955788 21.6729 0.715746C31.9747 -2.15476 42.6566 3.8663 45.5271 14.1681C48.3976 24.4699 42.3766 35.1518 32.0748 38.0223C31.2146 38.2623 30.3544 38.4324 29.4943 38.5524C38.2558 34.7817 43.0967 25.03 40.4662 15.5784C37.8358 6.1367 28.6442 0.295672 19.1925 1.5959Z" fill="#58A430"/>
</svg>
